<svg width="307" height="295" viewBox="0 0 307 295" fill="none" xmlns="http://www.w3.org/2000/svg">
<path d="M4.75892 184.978C0.592003 126.564 14.5975 90.5194 22.1211 79.7987C36.0108 72.8447 49.3222 76.9012 54.2417 79.7987C107.023 8.86796 149.155 0.407265 163.623 5.04326C173.967 5.04326 193.921 11.6992 213.105 19.2918C227.41 24.9531 241.287 26.789 250.434 31.1208C294.187 48.5057 292.971 94.8657 286.895 113.699C316.063 129.694 299.048 167.883 286.895 184.978C316.063 218.357 288.052 238.871 270.401 244.956C286.374 258.864 263.745 280.885 250.434 290.157C228.103 291.328 207.889 291.237 189.633 290.157C88.6567 284.182 47.5709 247.938 39.4839 227.571C13.0934 230.353 5.33788 200.335 4.75892 184.978Z" fill="#FBEAC9"/>
<path d="M270.401 244.956C286.374 258.864 263.745 280.885 250.434 290.157C228.103 291.328 207.889 291.237 189.633 290.157M270.401 244.956C288.052 238.871 316.063 218.357 286.895 184.978M270.401 244.956L174.909 227.571M286.895 184.978C299.048 167.883 316.063 129.694 286.895 113.699M286.895 184.978C243.142 191.236 203.823 176.575 189.633 168.462M286.895 113.699C292.971 94.8657 294.187 48.5057 250.434 31.1208C241.287 26.789 227.41 24.9531 213.105 19.2918M286.895 113.699C277.626 113.699 253.623 113.699 231.757 113.699M189.633 290.157C88.6567 284.182 47.5709 247.938 39.4839 227.571C13.0934 230.353 5.33788 200.335 4.75892 184.978C0.592003 126.564 14.5975 90.5194 22.1211 79.7987C36.0108 72.8447 49.3222 76.9012 54.2417 79.7987C107.023 8.86796 149.155 0.407266 163.623 5.04326C173.967 5.04326 193.921 11.6992 213.105 19.2918M189.633 290.157C174.018 283.493 149.213 261.646 174.909 227.571M174.909 227.571C170.001 216.561 163.13 192.627 174.909 184.978L189.633 168.462M189.633 168.462C176.044 162.957 149.386 140.298 151.47 93.7067M189.633 168.462C224.546 180.761 233.687 151.921 231.757 113.699M213.105 19.2918C221.38 45.6818 230.195 82.7637 231.757 113.699M151.47 93.7067C157.547 118.915 154.943 167.593 95.9109 160.639M151.47 93.7067C146.551 88.781 151.47 85.8835 141.053 79.7987" stroke="black" stroke-width="8"/>
</svg>
