<svg width="412" height="295" viewBox="0 0 412 295" fill="none" xmlns="http://www.w3.org/2000/svg">
<path d="M116.175 44.4621C139.841 35.2267 141.406 21.8076 154.458 11.2724C167.51 4.05722 189.296 -0.628375 200.571 11.2724C211.5 22.8076 200.571 39.8076 186.65 52.3987L141.406 89.9175C150.455 96.8441 184.62 92.8036 200.571 89.9175L333.691 61.0569C346.743 59.3734 369.398 59.7805 372.845 72.6012C377.5 89.9175 361.824 95.4491 356.313 98.5757L219.712 134.651L372.845 125.272C383.285 125.272 404.863 128.446 407.647 141.145C410.432 153.844 396.046 162.791 388.506 165.677L219.712 179.385L364.144 191.651C374.005 192.132 392.682 197.568 388.506 215.461C384.329 233.355 365.304 236.385 356.313 235.664L203.248 222.011L200.571 227.727L310.2 258.031C332.473 288.623 300.919 291.942 282.357 289.777L179.689 263.081C78.0653 276.934 27.1377 245.284 14.3769 227.727C-4.41663 179.241 6.54624 139.221 14.3769 125.272C16.465 98.1428 83.1123 60.0949 116.175 44.4621Z" fill="#FBEACA" stroke="black" stroke-width="8"/>
<path d="M194.635 232.308C206.489 210.233 231.313 157.727 220.21 130.085M87 170.49C111.288 161.372 154.103 128.467 136.754 89.3076" stroke="black" stroke-width="4"/>
</svg>
