<svg width="449" height="292" viewBox="0 0 449 292" fill="none" xmlns="http://www.w3.org/2000/svg">
<path d="M193.158 287.996L131.199 263.043C39.0197 256.968 8.00467 166.488 4.01953 122.008C7.28056 92.3542 29.8904 28.4905 94.2413 10.2644C158.592 -7.96173 194.246 17.8586 204.029 33.047L396.43 10.2644C418.52 10.2644 422.976 13.9956 425.131 38.4956C427.286 62.9956 420.52 66.9956 406.213 73.1879L252.945 104.65L431.214 171.913C447.02 181.996 446.52 188.186 439.995 209.996C434.541 220.383 431.214 230.497 413.822 230.497L277.946 188.186C283.164 231.581 248.959 242.43 231.204 242.43C233.016 257.619 227.943 287.996 193.158 287.996Z" fill="#FCEBCA"/>
<path d="M131.199 263.043L193.158 287.996C227.943 287.996 233.016 257.619 231.204 242.43M131.199 263.043C120.691 243.877 109.676 205.11 149.678 203.374M131.199 263.043C39.0197 256.968 8.00467 166.488 4.01953 122.008C7.28056 92.3542 29.8904 28.4905 94.2413 10.2644C158.592 -7.96173 194.246 17.8586 204.029 33.047M149.678 203.374L231.204 242.43M149.678 203.374C141.707 187.463 135.113 153.47 172.506 144.79M231.204 242.43C248.959 242.43 283.164 231.581 277.946 188.186M277.946 188.186L237.727 171.913M277.946 188.186L413.822 230.497C431.214 230.497 434.541 220.383 439.995 209.996C446.52 188.186 447.02 181.996 431.214 171.913L252.945 104.65L406.213 73.1879C420.52 66.9956 427.286 62.9956 425.131 38.4956C422.976 13.9956 418.52 10.2644 396.43 10.2644L204.029 33.047M237.727 171.913C260.336 146.743 224.682 68.8483 204.029 33.047M237.727 171.913C205.551 193.61 180.84 162.872 172.506 144.79M172.506 144.79C168.093 137.66 160.682 125.225 154.217 113.329M143.157 90.5461C145.348 96.379 149.534 104.713 154.217 113.329M154.217 113.329C146.544 123.816 120.764 144.79 79.0232 144.79" stroke="black" stroke-width="8"/>
</svg>
